HIERARCHY
ROOT root
{
	OFFSET 0.000000 0.000000 0.000000
	CHANNELS 6 Xposition Yposition Zposition Zrotation Yrotation Xrotation
	JOINT lhip
	{
		OFFSET 0.058581 -0.082280 -0.017664
		CHANNELS 3 Zrotation Yrotation Xrotation
		JOINT lknee
		{
			OFFSET 0.043451 -0.386469 0.008037
			CHANNELS 3 Zrotation Yrotation Xrotation
			JOINT lankle
			{
				OFFSET -0.014790 -0.426874 -0.037428
				CHANNELS 3 Zrotation Yrotation Xrotation
				JOINT ltoe
				{
					OFFSET 0.041054 -0.060286 0.122042
					CHANNELS 3 Zrotation Yrotation Xrotation
					End Site
					{
						OFFSET 0.000000 0.000000 0.000000
					}
				}
			}
		}
	}
	JOINT rhip
	{
		OFFSET -0.060310 -0.090513 -0.013543
		CHANNELS 3 Zrotation Yrotation Xrotation
		JOINT rknee
		{
			OFFSET -0.043257 -0.383688 -0.004843
			CHANNELS 3 Zrotation Yrotation Xrotation
			JOINT rankle
			{
				OFFSET 0.019056 -0.420046 -0.034562
				CHANNELS 3 Zrotation Yrotation Xrotation
				JOINT rtoe
				{
					OFFSET -0.034840 -0.062106 0.130323
					CHANNELS 3 Zrotation Yrotation Xrotation
					End Site
					{
						OFFSET 0.000000 0.000000 0.000000
					}
				}
			}
		}
	}
	JOINT lowerback
	{
		OFFSET 0.004439 0.124404 -0.038385
		CHANNELS 3 Zrotation Yrotation Xrotation
		JOINT upperback
		{
			OFFSET 0.004488 0.137956 0.026820
			CHANNELS 3 Zrotation Yrotation Xrotation
			JOINT chest
			{
				OFFSET -0.002265 0.056032 0.002855
				CHANNELS 3 Zrotation Yrotation Xrotation
				JOINT lowerneck
				{
					OFFSET -0.013390 0.211636 -0.033468
					CHANNELS 3 Zrotation Yrotation Xrotation
					JOINT upperneck
					{
						OFFSET 0.010113 0.088937 0.050410
						CHANNELS 3 Zrotation Yrotation Xrotation
						End Site
						{
							OFFSET 0.000000 0.000000 0.000000
						}
					}
				}
				JOINT lclavicle
				{
					OFFSET 0.071702 0.114000 -0.018898
					CHANNELS 3 Zrotation Yrotation Xrotation
					JOINT lshoulder
					{
						OFFSET 0.122921 0.045205 -0.019046
						CHANNELS 3 Zrotation Yrotation Xrotation
						JOINT lelbow
						{
							OFFSET 0.255332 -0.015649 -0.022946
							CHANNELS 3 Zrotation Yrotation Xrotation
							JOINT lwrist
							{
								OFFSET 0.265709 0.012698 -0.007375
								CHANNELS 3 Zrotation Yrotation Xrotation
								End Site
								{
									OFFSET 0.000000 0.000000 0.000000
								}
							}
						}
					}
				}
				JOINT rclavicle
				{
					OFFSET -0.082954 0.112472 -0.023707
					CHANNELS 3 Zrotation Yrotation Xrotation
					JOINT rshoulder
					{
						OFFSET -0.113228 0.046853 -0.008472
						CHANNELS 3 Zrotation Yrotation Xrotation
						JOINT relbow
						{
							OFFSET -0.260127 -0.014369 -0.031269
							CHANNELS 3 Zrotation Yrotation Xrotation
							JOINT rwrist
							{
								OFFSET -0.269108 0.006794 -0.006027
								CHANNELS 3 Zrotation Yrotation Xrotation
								End Site
								{
									OFFSET 0.000000 0.000000 0.000000
								}
							}
						}
					}
				}
			}
		}
	}
}
MOTION
Frames: 16
Frame Time: 0.033333
-0.961113 0.183920 0.997080 61.197593 5.952111 77.915913 2.265594 -10.116956 -13.556865 -3.657234 6.194033 51.645402 1.159836 17.037589 -17.667700 0.000000 -0.000000 0.000000 11.009475 -1.312833 18.769426 3.766698 7.989283 6.629568 -1.650663 -7.578795 -14.483423 0.000000 -0.000000 0.000000 0.182440 4.357711 -0.011981 4.814652 -4.882230 7.955909 1.468296 -1.416621 0.547522 3.108063 -6.049897 -8.389987 -0.045006 -5.664911 6.942423 -24.143187 8.200822 4.014864 -67.597635 1.596693 8.015008 10.635597 -29.636540 6.569331 5.378046 -6.383866 -11.929708 21.090015 -0.683014 -0.673139 56.674502 1.564028 14.798144 -7.186753 21.251778 8.463447 -1.321485 4.455370 -14.172363 
-0.947204 0.173832 0.998426 60.002653 4.946668 77.896284 0.991526 -10.025622 -14.983330 -3.533537 7.465626 42.494471 2.050352 17.711856 -17.835698 0.000000 -0.000000 0.000000 9.157696 -1.821143 20.375121 4.197776 8.676198 6.086491 -0.660549 -5.972464 -14.191740 0.000000 -0.000000 0.000000 1.187403 5.881670 0.330159 3.135664 -3.542475 8.026320 0.217601 -0.021129 0.743119 2.809994 -7.287704 -8.715957 0.882545 -8.684542 6.741482 -23.849392 8.570111 3.305072 -66.931387 2.904443 7.953269 10.509574 -29.879783 6.546257 5.033121 -6.482613 -11.920193 20.918671 0.697511 0.177720 58.102841 2.722433 15.041014 -6.854207 22.435194 9.097648 -1.738196 4.837371 -13.631880 
-0.932861 0.163104 0.999700 59.029097 4.092010 78.057698 -0.091141 -10.105191 -15.114092 -4.430558 6.787052 31.911990 2.429761 17.808370 -17.332864 0.000000 -0.000000 0.000000 7.846497 -2.202253 21.616623 4.340607 9.340302 6.002892 0.008168 -5.123287 -13.985360 0.000000 -0.000000 0.000000 1.779796 6.697975 0.398690 1.719020 -2.488448 8.382928 -0.816622 1.237399 0.754462 2.683185 -8.138836 -9.114568 1.481091 -11.343726 6.785136 -23.680807 9.071360 2.726071 -66.327241 4.449575 7.898115 10.293759 -29.735563 6.501723 5.349377 -6.506187 -11.820027 20.689203 2.146205 0.848794 59.341090 4.209092 15.473612 -6.434905 23.614453 9.661211 -2.052124 5.278990 -13.303694 
-0.918282 0.151440 1.000684 58.105871 3.576550 78.359961 -0.764811 -9.984787 -14.470140 -4.819020 4.533323 21.701602 2.183387 17.514101 -16.196210 0.000000 -0.000000 0.000000 7.046753 -2.809796 22.426648 4.271426 9.842885 6.520714 0.523595 -4.197642 -13.954548 0.000000 -0.000000 0.000000 2.354858 7.157631 0.165485 0.465741 -1.646102 9.069579 -1.679730 2.147925 0.502433 2.680234 -8.538571 -9.541314 1.822446 -13.604319 7.085863 -23.495360 9.515658 2.305500 -66.019197 6.128981 7.396196 10.091992 -29.074335 6.547302 5.137827 -6.624291 -11.592635 20.402451 3.576633 1.420481 60.448509 5.914957 15.582722 -5.817460 24.947020 10.680239 -2.111810 5.796206 -13.007638 
-0.902748 0.139332 1.001134 57.131701 3.245096 78.726028 -1.222091 -9.400948 -13.457164 -4.041788 2.500478 13.423456 2.179418 17.113531 -15.315581 0.000000 -0.000000 0.000000 6.355866 -3.363046 23.193801 4.238791 10.238563 7.102753 0.944775 -3.151400 -13.926324 0.000000 -0.000000 0.000000 3.071030 7.378537 -0.424108 -0.716662 -0.928230 10.105731 -2.544070 2.847025 0.201165 2.650656 -8.806744 -9.994712 2.186477 -15.407508 7.455644 -23.307357 9.708259 2.080282 -66.151408 7.618298 6.625184 10.159873 -27.655838 6.421514 4.390987 -6.860808 -11.394168 20.143239 4.930572 1.991029 61.474253 7.734856 15.441543 -5.323889 26.693720 11.712005 -1.939295 6.307566 -12.838762 
-0.886324 0.127171 1.000718 56.045873 2.768575 79.188970 -1.533664 -8.500385 -12.372057 -3.409289 1.259528 7.672346 2.252607 16.498634 -14.961462 0.000000 -0.000000 0.000000 5.445736 -3.514869 23.888032 4.278238 10.492436 7.721589 1.458220 -2.004606 -13.854398 0.000000 -0.000000 0.000000 3.616088 7.435228 -0.719218 -1.839883 -0.301315 10.554675 -3.464761 3.460032 -0.124204 2.669484 -8.995387 -10.359621 2.563651 -16.947554 7.900283 -23.114046 9.901832 1.947551 -66.404279 9.120907 5.705963 10.203913 -25.824485 6.079399 3.824778 -6.958110 -10.980077 19.905212 6.015210 2.480351 62.695226 9.303699 15.411042 -5.066954 28.827432 12.382290 -1.907753 6.742583 -12.773904 
-0.868782 0.113758 0.999580 55.093880 2.192715 79.971002 -1.631559 -7.723235 -11.293264 -3.462038 0.022525 4.267524 1.756343 15.060280 -14.860973 0.000000 -0.000000 0.000000 4.622993 -3.418134 24.258311 4.128447 10.561913 8.351487 2.031485 -0.925755 -13.720996 0.000000 -0.000000 0.000000 3.651560 7.417092 -1.198491 -2.741195 0.016155 10.674215 -4.325496 3.866396 -0.678268 2.820163 -9.012303 -10.364135 2.890373 -18.023425 8.179014 -23.155608 10.247964 2.009394 -66.390215 10.693191 4.660090 10.144403 -23.899124 5.644488 2.963843 -7.191229 -10.447521 19.804394 6.782616 2.902526 64.103437 10.464043 15.621770 -4.958351 31.216929 12.923686 -1.793925 7.039020 -13.033282 
-0.849882 0.098946 0.998209 54.437158 1.662395 80.932842 -1.805833 -7.490531 -10.062513 -3.629435 -0.823583 2.818041 1.576153 14.379879 -14.654282 0.000000 -0.000000 0.000000 4.071537 -3.226143 24.627562 3.777894 10.539951 8.716386 2.638819 -0.238407 -13.556804 0.000000 -0.000000 0.000000 3.359270 7.359338 -2.049761 -3.413248 0.033490 10.692544 -5.091508 4.035149 -1.205407 3.046050 -9.028427 -10.277142 3.180718 -18.748943 8.524140 -23.308092 10.677742 2.209349 -66.308308 12.097051 3.711935 10.090459 -21.976986 5.222818 2.227212 -7.171362 -9.832970 19.855616 7.102668 3.126495 65.556114 11.202757 16.143326 -4.800475 33.746851 13.599410 -1.768843 7.229372 -13.544245 
-0.829407 0.083554 0.996659 54.152458 0.943163 82.174048 -2.333951 -6.688590 -9.214615 -4.176651 -0.462394 1.678525 1.549041 13.288801 -13.639949 0.000000 -0.000000 0.000000 2.966293 -3.255145 24.909790 3.335791 10.271374 8.750788 4.080274 1.363253 -13.061059 0.000000 -0.000000 0.000000 2.672855 7.502724 -3.307894 -3.936520 -0.210493 10.553357 -5.825244 4.024415 -1.620332 3.365338 -8.928955 -10.071632 3.382809 -19.618523 8.762387 -23.457724 11.098910 2.484966 -65.986140 13.090441 2.935037 9.959816 -19.929748 4.717101 1.058093 -7.190492 -9.090707 20.174132 6.769998 3.320918 66.810462 11.536676 16.750017 -4.430857 36.453785 14.514886 -1.656281 7.403724 -13.945607 
-0.808245 0.068217 0.996473 54.139122 0.208609 83.130157 -2.855527 -5.474843 -8.382227 -4.983141 -0.332377 0.708538 1.296865 12.227947 -11.947797 0.000000 -0.000000 0.000000 1.477332 -3.642511 25.081199 3.208150 10.125677 9.340428 5.669076 3.256138 -11.699671 0.000000 -0.000000 0.000000 2.103162 7.744018 -4.022001 -4.471495 -0.442323 10.057839 -6.507481 3.869132 -1.902320 3.500526 -8.960216 -10.038835 3.374267 -20.445802 9.213031 -23.817234 11.309776 2.496358 -65.143217 13.689554 2.330974 9.699808 -17.872025 4.216839 -0.283353 -7.111364 -8.338005 20.670426 6.141413 3.291948 67.715364 11.213865 17.264409 -3.771196 38.993865 15.578955 -1.726803 7.604906 -14.102325 
-0.786654 0.053281 0.997841 54.396334 -0.386264 83.843493 -3.462475 -5.132049 -7.818922 -5.273250 0.690425 1.242887 1.703226 12.630412 -10.594310 0.000000 -0.000000 0.000000 0.832682 -3.711334 24.908587 2.845636 9.722757 10.834218 7.010743 4.029235 -9.894986 0.000000 -0.000000 0.000000 1.703929 7.861355 -4.518767 -4.918654 -0.449002 9.432967 -7.011360 3.719200 -2.114424 3.340842 -9.515733 -9.751453 3.364163 -21.042935 9.593970 -24.169423 11.437138 2.499474 -64.306882 13.659951 1.729772 9.916910 -16.127746 3.236084 -2.007525 -6.893328 -7.484708 20.983170 5.336533 3.224355 68.406343 10.234400 17.713414 -3.101118 41.114146 16.759387 -1.718125 7.781810 -14.218348 
-0.764193 0.038731 0.999306 54.955137 -1.063662 84.524383 -4.370564 -5.225798 -7.000934 -5.546638 0.682975 1.361575 2.658383 12.589556 -9.594302 0.000000 -0.000000 0.000000 0.519369 -3.677607 24.416751 2.210509 9.101005 12.879255 8.424694 4.242542 -7.797163 0.000000 -0.000000 0.000000 1.152599 7.809628 -5.397545 -5.292328 -0.367863 9.170673 -7.382480 3.698445 -2.307002 3.107209 -10.401414 -9.105886 3.605061 -21.414373 9.665178 -24.327120 11.562304 2.664712 -63.654347 13.253847 1.296636 10.602458 -15.708213 1.543133 -3.487486 -6.370585 -7.375348 20.963335 4.695506 3.363971 69.097564 8.915940 18.040590 -2.747517 42.607408 17.349698 -1.356320 7.837824 -14.118549 
-0.740785 0.023741 1.000416 55.345188 -1.713975 84.885703 -5.515650 -5.347082 -5.609238 -5.529163 0.160011 1.211097 4.085270 12.579913 -9.436958 0.000000 -0.000000 0.000000 -0.036481 -3.860080 23.925210 1.706172 8.858178 15.427315 10.276595 4.512304 -4.927619 0.000000 -0.000000 0.000000 0.724958 7.699887 -6.239965 -5.633712 -0.171239 9.166593 -7.683010 3.771768 -2.464815 2.810524 -11.556938 -8.287471 4.003561 -21.237962 9.596064 -24.433667 11.775235 2.854127 -62.890276 12.818591 1.135563 11.219864 -16.841559 -0.443025 -3.760293 -5.932288 -8.233911 20.739060 4.368197 3.532125 69.803790 7.456521 18.452586 -2.731433 43.103929 16.975027 -1.002166 7.749334 -13.640001 
-0.717508 0.009170 1.001412 55.370328 -2.389689 85.127653 -6.578143 -5.527393 -4.096723 -5.531259 0.009837 1.076773 5.706389 13.205466 -9.508355 0.000000 -0.000000 0.000000 -0.788924 -3.784434 22.775574 1.428023 8.815301 19.063334 12.522892 4.938569 -1.342635 0.000000 -0.000000 0.000000 0.350840 7.541530 -6.940249 -5.846717 0.221253 9.016515 -7.930214 3.868223 -2.544396 2.541841 -12.657505 -7.394928 4.230447 -21.016445 9.606084 -24.663116 12.080515 2.908511 -61.935766 12.245366 1.403560 11.882941 -18.782219 -2.176942 -3.460041 -5.892611 -9.189309 20.719175 3.981903 3.556462 70.149467 6.170633 18.937671 -2.652457 42.304347 16.452044 -0.653565 7.637091 -12.970209 
-0.695912 -0.003853 1.001667 55.229222 -3.309899 85.670550 -7.761655 -6.201337 -3.019585 -5.741855 -0.076779 0.784174 7.587800 14.421470 -9.331144 0.000000 -0.000000 0.000000 -1.506504 -2.799617 19.956910 1.624681 8.393654 24.765875 14.636521 4.902188 2.240587 0.000000 -0.000000 0.000000 -0.292204 7.123588 -7.642294 -5.941887 0.793116 8.467962 -8.173444 3.951439 -2.540132 2.423682 -13.425906 -6.675249 4.131958 -20.881230 9.988663 -24.924071 12.343095 2.861211 -60.889691 11.257017 2.189676 12.782144 -20.735285 -3.874790 -2.715955 -6.097233 -9.754373 20.957896 3.444387 3.512897 70.358474 5.253255 19.624412 -2.993360 40.313701 15.579311 -0.260645 7.461767 -12.034106 
-0.676166 -0.014471 0.999869 54.647384 -4.683159 86.237007 -9.552832 -7.297423 -2.096638 -5.830314 0.159133 0.372356 9.554672 16.262383 -9.702371 0.000000 -0.000000 0.000000 -2.724368 -0.807841 15.564898 2.474270 7.380020 32.901457 16.437172 4.463708 5.623861 0.000000 -0.000000 0.000000 -0.964280 6.385479 -7.734183 -6.192294 1.673251 7.417181 -8.660290 4.148182 -2.266019 2.744217 -13.590541 -6.686061 3.837409 -21.151403 10.483007 -25.081829 12.317526 2.421555 -59.729283 9.762986 3.444043 13.735048 -22.241467 -5.780361 -1.823564 -6.401264 -9.908619 21.373018 3.031025 3.335387 70.733605 4.780796 20.598350 -4.166322 37.568335 13.552083 -0.015743 7.273178 -10.808480 
